<?xml version="1.0" standalone="no"?>
<!DOCTYPE svg PUBLIC "-//W3C//DTD SVG 20010904//EN" "http://www.w3.org/TR/2001/REC-SVG-20010904/DTD/svg10.dtd">
<svg version="1.0" xmlns="http://www.w3.org/2000/svg" width="218.000000pt" height="218.000000pt" viewBox="0 0 218.000000 218.000000" preserveAspectRatio="xMidYMid meet">
<g transform="translate(0.000000,218.000000) scale(0.100000,-0.100000)" fill="#000000" stroke="none">
<path d="M1291 1652 c-46 -86 -179 -411 -215 -527 -8 -27 -25 -81 -37 -118 -11 -37 -43 -154 -69 -260 -41 -163 -47 -196 -37 -217 8 -16 22 -26 39 -28 26 -3 26 -2 67 165 22 92 55 215 74 273 l33 105 69 6 c39 4 139 7 223 8 142 1 153 0 148 -16 -3 -10 -24 -85 -46 -168 -23 -82 -50 -176 -60 -208 l-19 -59 24 -24 c44 -44 58 -34 77 61 9 46 39 155 67 242 27 87 66 211 86 275 20 65 40 120 45 123 4 2 13 26 20 52 6 26 30 87 52 136 37 79 40 90 28 112 -14 27 -39 39 -62 30 -22 -9 -40 -54 -107 -265 -33 -106 -63 -196 -67 -199 -3 -3 -105 -8 -226 -9 -211 -4 -220 -3 -213 15 4 10 29 77 55 149 26 71 69 169 94 215 25 47 46 90 46 95 0 18 -40 54 -60 54 -11 0 -24 -8 -29 -18z" />
<path d="M668 1623 c-77 -83 -189 -290 -264 -490 -14 -38 -30 -72 -35 -77 -5 -6 -9 -19 -9 -31 0 -12 -4 -25 -9 -31 -19 -21 -43 -175 -36 -234 16 -142 145 -221 307 -191 71 14 187 67 202 93 21 35 -5 38 -129 13 -144 -30 -177 -30 -232 -6 -59 27 -77 59 -68 118 28 196 160 507 295 695 72 100 81 125 54 152 -23 23 -47 20 -76 -11z" />
</g>
</svg>
